#!OML:ASF I:\golf\golf\golf 2\Subject 1\2002-09-07\Subject1.ASF
:FULLY-SPECIFIED
:DEGREES
202
root -6.65115 17.556 2.00434 2.40608 54.2606 -11.8298
lowerback 6.2367 -8.84144 -11.7561
upperback 2.02711 -12.3662 -1.75499
thorax 0.753034 -6.23111 5.00777
lowerneck -8.80473 19.4648 3.16821
upperneck 17.5893 29.8169 -14.6827
head 9.81521 12.9204 -1.54382
rclavicle 1.70955e-013 -2.8625e-014
rhumerus 30.7335 -20.0037 -67.2517
rradius 104.459
rwrist -4.95923
rhand -64.382 42.2985
rfingers 7.12502
rthumb -36.3127 16.0594
lclavicle 1.70955e-013 -2.8625e-014
lhumerus 106.898 -41.3237 45.5955
lradius 36.1749
lwrist -7.29089
lhand -26.2501 -0.386228
lfingers 7.12502
lthumb -179.696 209.593
rfemur -35.6058 7.59128 25.4652
rtibia 39.0563
rfoot -10.3406 19.8405
rtoes 20.1628
lfemur -10.0419 18.8327 1.46928
ltibia 28.4965
lfoot -10.9543 16.3971
ltoes -18.9906
203
root -6.66123 17.5638 1.96024 2.3903 54.7205 -11.9802
lowerback 6.46241 -9.00245 -11.9041
upperback 1.99008 -12.6258 -1.3824
thorax 0.752121 -6.36908 5.4919
lowerneck -8.66779 19.5837 2.6541
upperneck 17.385 30.0496 -14.8678
head 9.69924 13.0112 -1.53178
rclavicle 9.70069e-014 2.54444e-014
rhumerus 30.8702 -19.1064 -67.7384
rradius 103.948
rwrist -5.57541
rhand -64.4119 41.5649
rfingers 7.12502
rthumb -36.341 15.3329
lclavicle 9.70069e-014 2.54444e-014
lhumerus 105.768 -41.1437 46.4285
lradius 35.6539
lwrist -7.55466
lhand -25.9382 -0.282691
lfingers 7.12502
lthumb -179.395 209.696
rfemur -35.7709 7.48565 25.3288
rtibia 38.8928
rfoot -10.3122 19.2743
rtoes 19.614
lfemur -10.6151 19.207 1.28746
ltibia 28.5876
lfoot -11.1336 15.9754
ltoes -17.1698
204
root -6.67082 17.5704 1.9112 2.33377 55.2305 -12.2277
lowerback 6.78165 -9.39225 -11.9808
upperback 1.86295 -13.2082 -0.792917
thorax 0.706406 -6.66778 6.17625
lowerneck -8.65344 19.9235 1.32317
upperneck 16.9726 30.6148 -14.9391
head 9.41876 13.2367 -1.35948
rclavicle -4.81059e-014 -6.36111e-015
rhumerus 31.4453 -17.5531 -68.3626
rradius 103.524
rwrist -6.85982
rhand -63.7497 40.7322
rfingers 7.12502
rthumb -35.7138 14.3458
lclavicle -4.81059e-014 -6.36111e-015
lhumerus 103.961 -40.526 47.9016
lradius 34.9347
lwrist -7.92285
lhand -25.5778 -0.253889
lfingers 7.12502
lthumb -179.046 209.724
rfemur -35.9787 7.21982 25.2758
rtibia 38.7221
rfoot -10.403 18.7578
rtoes 18.3774
lfemur -11.254 19.3353 1.11155
ltibia 28.6456
lfoot -11.5348 15.7038
ltoes -14.181
205
root -6.68035 17.5777 1.86045 2.47406 55.7729 -12.2717
lowerback 6.75178 -9.14231 -11.723
upperback 1.94794 -12.8463 -1.07221
thorax 0.620904 -6.47649 5.76615
lowerneck -8.31364 19.5959 2.32878
upperneck 17.1568 30.0378 -14.8718
head 9.50705 13.0382 -1.55365
rclavicle -6.67916e-014 -6.36111e-014
rhumerus 30.5312 -18.2552 -69.0414
rradius 103.254
rwrist -8.13857
rhand -63.2295 39.8036
rfingers 7.12502
rthumb -35.2206 13.2993
lclavicle -6.67916e-014 -6.36111e-014
lhumerus 104.275 -41.6672 47.2921
lradius 34.5253
lwrist -7.79337
lhand -25.0868 -0.0842937
lfingers 7.12502
lthumb -178.572 209.891
rfemur -36.2272 6.78711 25.1239
rtibia 38.5533
rfoot -10.5764 18.4233
rtoes 16.8019
lfemur -11.9691 19.5815 0.756054
ltibia 28.7227
lfoot -11.5718 15.5486
ltoes -13.3821
206
root -6.69068 17.5888 1.81195 2.63873 56.3098 -12.2627
lowerback 6.75409 -8.97732 -11.6936
upperback 1.98208 -12.6212 -1.17001
thorax 0.585773 -6.36055 5.65689
lowerneck -8.02566 19.2906 2.93548
upperneck 17.4112 29.5548 -14.766
head 9.56967 12.8587 -1.68192
rclavicle 4.92986e-014 1.27222e-014
rhumerus 29.799 -18.5287 -69.6209
rradius 102.836
rwrist -9.30712
rhand -62.9903 39.8094
rfingers 7.12502
rthumb -34.9937 13.2519
lclavicle 4.92986e-014 1.27222e-014
lhumerus 104.085 -42.5415 47.1204
lradius 34.0492
lwrist -7.98625
lhand -24.8441 -0.146351
lfingers 7.12502
lthumb -178.338 209.827
rfemur -36.4539 6.36169 24.938
rtibia 38.3759
rfoot -10.6619 18.177
rtoes 15.5905
lfemur -12.6837 20.0555 0.375967
ltibia 28.8437
lfoot -11.5474 15.1909
ltoes -12.9726
207
root -6.70219 17.5965 1.76183 2.50197 56.9005 -12.5238
lowerback 6.86164 -8.86102 -11.6592
upperback 2.1489 -12.4645 -1.05707
thorax 0.694184 -6.29732 5.75816
lowerneck -8.22626 19.0637 3.12893
upperneck 17.6151 29.2532 -14.7392
head 9.67156 12.7057 -1.71394
rclavicle 5.24792e-014 9.54166e-015
rhumerus 29.5051 -18.5986 -70.2266
rradius 102.331
rwrist -10.2181
rhand -62.8874 40.1429
rfingers 7.12502
rthumb -34.8961 13.5627
lclavicle 5.24792e-014 9.54166e-015
lhumerus 103.874 -43.0207 47.0577
lradius 33.5965
lwrist -8.14676
lhand -24.5372 -0.147829
lfingers 7.12502
lthumb -178.041 209.823
rfemur -36.5919 5.8716 24.9231
rtibia 38.1862
rfoot -10.6946 17.9042
rtoes 14.5188
lfemur -13.3456 20.5346 0.163094
ltibia 28.9697
lfoot -11.598 14.743
ltoes -12.5577
208
root -6.71449 17.6047 1.70873 2.26048 57.5609 -12.9371
lowerback 6.99115 -8.84618 -11.5038
upperback 2.3208 -12.4387 -0.855788
thorax 0.813663 -6.30155 5.88789
lowerneck -8.60811 18.9705 3.0999
upperneck 17.808 29.1761 -14.7311
head 9.79545 12.6296 -1.67397
rclavicle -1.03368e-014 0
rhumerus 29.3679 -18.3966 -70.9285
rradius 101.787
rwrist -10.8125
rhand -62.8938 39.6765
rfingers 7.12502
rthumb -34.9022 13.0977
lclavicle -1.03368e-014 0
lhumerus 103.389 -43.341 47.2388
lradius 33.2367
lwrist -8.05948
lhand -23.8307 0.307619
lfingers 7.12502
lthumb -177.359 210.271
rfemur -36.7485 5.49819 24.927
rtibia 37.9841
rfoot -10.7415 17.4641
rtoes 13.6763
lfemur -14.0841 20.8707 -0.0248159
ltibia 29.1123
lfoot -11.4194 14.4817
ltoes -13.526
209
root -6.72704 17.6182 1.65203 2.19531 58.2609 -13.2246
lowerback 7.04104 -8.86274 -11.3297
upperback 2.41262 -12.4495 -0.70421
thorax 0.882987 -6.31654 5.952
lowerneck -8.74885 18.8356 3.23443
upperneck 18.0319 29.0436 -14.8015
head 9.92071 12.543 -1.70683
rclavicle -4.6118e-014 -1.27222e-014
rhumerus 29.0817 -18.1602 -71.6857
rradius 101.266
rwrist -11.4092
rhand -62.8243 38.9142
rfingers 7.12502
rthumb -34.8363 12.3201
lclavicle -4.6118e-014 -1.27222e-014
lhumerus 102.767 -43.7654 47.4792
lradius 32.811
lwrist -7.98262
lhand -23.3107 0.704898
lfingers 7.12502
lthumb -176.857 210.661
rfemur -36.9837 5.08848 24.832
rtibia 37.7873
rfoot -10.7868 17.0016
rtoes 13.1832
lfemur -14.9468 21.0529 -0.354143
ltibia 29.2668
lfoot -11.1773 14.3959
ltoes -14.4872
210
root -6.73833 17.6317 1.59033 2.11332 59.0723 -13.5517
lowerback 7.01918 -8.8083 -11.13
upperback 2.56475 -12.3516 -0.488657
thorax 1.0448 -6.286 6.05064
lowerneck -9.01433 18.573 3.20554
upperneck 18.3264 28.7504 -14.7977
head 10.0409 12.3696 -1.7162
rclavicle 2.94201e-014 -6.04305e-014
rhumerus 28.8101 -18.2116 -72.2627
rradius 100.721
rwrist -12.1116
rhand -62.7017 37.8976
rfingers 7.12502
rthumb -34.7199 11.2766
lclavicle 2.94201e-014 -6.04305e-014
lhumerus 102.463 -44.2492 47.6357
lradius 32.3509
lwrist -7.9927
lhand -22.8327 0.960798
lfingers 7.12502
lthumb -176.395 210.91
rfemur -37.2231 4.41758 24.7597
rtibia 37.6021
rfoot -10.3792 16.7839
rtoes 14.5587
lfemur -15.9111 21.2994 -0.710083
ltibia 29.4095
lfoot -11.0019 14.1579
ltoes -14.66
211
root -6.74793 17.6444 1.53001 2.07949 59.9501 -13.7847
lowerback 7.01864 -8.74642 -11.0419
upperback 2.73769 -12.2521 -0.242978
thorax 1.24748 -6.25931 6.23749
lowerneck -9.35596 18.3539 3.07684
upperneck 18.6446 28.515 -14.7008
head 10.1588 12.2194 -1.67063
rclavicle -8.66701e-014 -3.18055e-015
rhumerus 28.5056 -18.2783 -72.7909
rradius 100.207
rwrist -12.8484
rhand -62.6636 36.915
rfingers 7.12502
rthumb -34.6837 10.2856
lclavicle -8.66701e-014 -3.18055e-015
lhumerus 102.162 -44.721 47.7834
lradius 32.0214
lwrist -7.75151
lhand -21.9037 1.68662
lfingers 7.12502
lthumb -175.498 211.619
rfemur -37.3848 3.85128 24.5513
rtibia 37.4055
rfoot -9.64762 16.5016
rtoes 17.388
lfemur -16.845 21.5798 -1.1312
ltibia 29.5661
lfoot -11.1542 13.64
ltoes -13.5556
212
root -6.75712 17.6536 1.47127 2.13615 60.815 -13.8789
lowerback 7.06445 -8.77575 -11.0443
upperback 2.89902 -12.2841 -0.080535
thorax 1.43792 -6.29567 6.39164
lowerneck -9.51048 18.251 3.30421
upperneck 18.7397 28.4064 -14.8658
head 10.2735 12.1505 -1.74124
rclavicle -3.33958e-014 0
rhumerus 28.1523 -18.0799 -73.5909
rradius 99.7328
rwrist -13.516
rhand -62.6524 36.481
rfingers 7.12502
rthumb -34.6732 9.8492
lclavicle -3.33958e-014 0
lhumerus 101.489 -45.152 48.0343
lradius 31.7296
lwrist -7.25194
lhand -20.7573 2.69726
lfingers 7.12502
lthumb -174.391 212.603
rfemur -37.5098 3.27931 24.3376
rtibia 37.1708
rfoot -9.81302 15.8927
rtoes 15.9802
lfemur -17.7204 21.7914 -1.63431
ltibia 29.7598
lfoot -11.3848 13.0964
ltoes -12.2247
213
root -6.76599 17.6601 1.40973 1.99465 61.6736 -14.249
lowerback 6.98826 -8.77266 -10.8828
upperback 3.11373 -12.2467 0.127885
thorax 1.71399 -6.30298 6.48405
lowerneck -9.68916 18.0656 3.59408
upperneck 18.7537 28.1981 -15.2011
head 10.3928 12.0292 -1.88752
rclavicle 1.64594e-013 -5.40694e-014
rhumerus 27.8534 -18.0154 -74.3781
rradius 99.2249
rwrist -14.3959
rhand -62.4817 37.0775
rfingers 7.12502
rthumb -34.5111 10.4086
lclavicle 1.64594e-013 -5.40694e-014
lhumerus 100.829 -45.653 48.3518
lradius 31.3751
lwrist -6.85003
lhand -19.825 3.45004
lfingers 7.12502
lthumb -173.491 213.33
rfemur -37.6927 2.60884 24.3562
rtibia 36.8904
rfoot -10.6386 15.0905
rtoes 10.6211
lfemur -18.6885 22.0672 -2.05028
ltibia 29.9517
lfoot -11.27 12.6292
ltoes -12.0722
